<svg id="svg" version="1.1" xmlns="http://www.w3.org/2000/svg" xmlns:xlink="http://www.w3.org/1999/xlink" width="400" height="400" viewBox="0, 0, 400,400"><g id="svgg"><path id="path0" d="M55.299 3.518 C 54.994 4.313,55.801 4.917,56.760 4.613 C 58.042 4.206,57.871 2.787,56.552 2.896 C 55.976 2.943,55.412 3.223,55.299 3.518 M58.306 5.020 C 58.548 6.284,59.743 6.193,59.928 4.896 C 60.030 4.179,59.862 4.000,59.083 4.000 C 58.257 4.000,58.140 4.153,58.306 5.020 M60.472 6.100 C 60.668 7.481,62.400 7.596,62.400 6.228 C 62.400 5.391,62.209 5.200,61.372 5.200 C 60.535 5.200,60.368 5.367,60.472 6.100 M62.800 7.154 C 62.800 7.959,64.369 9.200,65.386 9.200 C 65.733 9.200,66.000 8.853,66.000 8.400 C 66.000 7.956,65.733 7.600,65.400 7.600 C 65.070 7.600,64.800 7.330,64.800 7.000 C 64.800 6.627,64.422 6.400,63.800 6.400 C 63.087 6.400,62.800 6.616,62.800 7.154 M66.622 9.164 C 66.236 9.788,66.869 10.845,67.550 10.716 C 68.558 10.524,68.649 8.800,67.651 8.800 C 67.209 8.800,66.746 8.964,66.622 9.164 M68.872 10.900 C 68.954 11.478,69.322 11.846,69.900 11.928 C 70.395 11.998,70.800 12.210,70.800 12.399 C 70.800 12.804,73.086 14.000,73.861 14.000 C 74.595 14.000,74.546 12.831,73.800 12.545 C 73.470 12.418,73.200 12.064,73.200 11.757 C 73.200 11.405,72.759 11.200,72.000 11.200 C 71.200 11.200,70.800 11.000,70.800 10.600 C 70.800 10.222,70.419 10.000,69.772 10.000 C 68.935 10.000,68.768 10.167,68.872 10.900 M74.872 14.500 C 74.956 15.091,75.275 15.400,75.800 15.400 C 76.325 15.400,76.644 15.091,76.728 14.500 C 76.833 13.762,76.666 13.600,75.800 13.600 C 74.934 13.600,74.767 13.762,74.872 14.500 M77.272 15.700 C 77.354 16.278,77.722 16.646,78.300 16.728 C 78.795 16.798,79.200 17.010,79.200 17.199 C 79.200 17.604,81.486 18.800,82.261 18.800 C 82.995 18.800,82.946 17.631,82.200 17.345 C 81.870 17.218,81.600 16.864,81.600 16.557 C 81.600 16.205,81.159 16.000,80.400 16.000 C 79.600 16.000,79.200 15.800,79.200 15.400 C 79.200 15.022,78.819 14.800,78.172 14.800 C 77.335 14.800,77.168 14.967,77.272 15.700 M83.200 19.176 C 83.200 20.119,83.710 20.486,84.564 20.159 C 85.632 19.749,85.353 18.400,84.200 18.400 C 83.477 18.400,83.200 18.615,83.200 19.176 M85.672 20.500 C 85.754 21.078,86.122 21.446,86.700 21.528 C 87.195 21.598,87.600 21.815,87.600 22.009 C 87.600 22.529,90.289 23.716,90.780 23.412 C 91.414 23.021,91.284 22.000,90.600 22.000 C 90.270 22.000,90.000 21.730,90.000 21.400 C 90.000 21.000,89.600 20.800,88.800 20.800 C 88.000 20.800,87.600 20.600,87.600 20.200 C 87.600 19.822,87.219 19.600,86.572 19.600 C 85.735 19.600,85.568 19.767,85.672 20.500 M91.600 24.028 C 91.600 24.657,91.815 24.825,92.496 24.728 C 93.825 24.538,93.942 23.200,92.629 23.200 C 91.855 23.200,91.600 23.405,91.600 24.028 M93.600 24.920 C 93.600 25.662,94.438 26.400,95.280 26.400 C 95.676 26.400,96.000 26.572,96.000 26.781 C 96.000 27.321,98.674 28.525,99.180 28.212 C 99.814 27.821,99.684 26.800,99.000 26.800 C 98.670 26.800,98.400 26.530,98.400 26.200 C 98.400 25.800,98.000 25.600,97.200 25.600 C 96.400 25.600,96.000 25.400,96.000 25.000 C 96.000 24.600,95.600 24.400,94.800 24.400 C 94.082 24.400,93.600 24.609,93.600 24.920 M282.800 26.500 L 282.799 27.400 291.500 27.400 L 300.200 27.400 300.200 36.100 C 300.200 44.120,300.255 44.801,300.900 44.800 C 301.547 44.800,301.600 44.076,301.600 35.200 L 301.600 25.600 292.200 25.600 L 282.800 25.600 282.800 26.500 M100.000 28.733 C 100.000 29.677,100.336 29.999,101.039 29.730 C 101.924 29.390,101.732 28.000,100.800 28.000 C 100.291 28.000,100.000 28.267,100.000 28.733 M102.000 29.720 C 102.000 30.462,102.838 31.200,103.680 31.200 C 104.076 31.200,104.400 31.367,104.400 31.571 C 104.400 32.066,106.802 33.246,107.249 32.970 C 107.828 32.612,107.645 31.600,107.000 31.600 C 106.670 31.600,106.400 31.310,106.400 30.955 C 106.400 30.465,106.110 30.352,105.200 30.485 C 104.240 30.626,104.000 30.515,104.000 29.931 C 104.000 29.418,103.702 29.200,103.000 29.200 C 102.446 29.200,102.000 29.432,102.000 29.720 M108.000 33.320 C 108.000 34.088,108.817 34.768,109.449 34.526 C 110.452 34.141,110.103 32.800,109.000 32.800 C 108.446 32.800,108.000 33.032,108.000 33.320 M110.400 34.751 C 110.400 35.164,110.674 35.729,111.008 36.007 C 111.547 36.454,111.604 41.677,111.508 81.861 C 111.402 126.309,111.415 127.215,112.170 127.454 C 112.646 127.605,113.120 127.451,113.414 127.049 C 113.675 126.692,114.182 126.400,114.541 126.400 C 114.900 126.400,115.418 126.040,115.693 125.600 C 115.968 125.160,116.599 124.800,117.096 124.800 C 117.733 124.800,118.000 124.564,118.000 124.000 C 118.000 123.413,117.733 123.200,117.000 123.200 C 116.378 123.200,116.000 123.427,116.000 123.800 C 116.000 124.200,115.600 124.400,114.800 124.400 C 114.000 124.400,113.600 124.600,113.600 125.000 C 113.600 125.330,113.330 125.600,113.000 125.600 C 112.470 125.600,112.400 120.244,112.400 79.800 L 112.400 34.000 111.400 34.000 C 110.688 34.000,110.400 34.217,110.400 34.751 M282.800 44.000 C 282.800 44.533,283.067 44.800,283.600 44.800 C 284.133 44.800,284.400 44.533,284.400 44.000 C 284.400 43.467,284.133 43.200,283.600 43.200 C 283.067 43.200,282.800 43.467,282.800 44.000 M196.000 77.400 C 196.000 77.730,195.730 78.000,195.400 78.000 C 195.067 78.000,194.800 78.356,194.800 78.800 C 194.800 79.827,195.756 79.828,197.196 78.803 C 198.181 78.101,198.345 78.081,198.558 78.635 C 199.165 80.215,198.817 141.508,198.200 141.745 C 197.339 142.075,197.430 143.600,198.311 143.600 C 200.471 143.600,200.400 144.767,200.400 109.395 L 200.400 76.800 198.200 76.800 C 196.511 76.800,196.000 76.939,196.000 77.400 M192.400 79.957 C 192.400 80.872,193.330 81.310,193.951 80.689 C 194.717 79.923,194.449 79.200,193.400 79.200 C 192.686 79.200,192.400 79.416,192.400 79.957 M189.874 81.240 C 189.753 81.703,189.462 81.962,189.227 81.817 C 188.992 81.672,188.800 81.754,188.800 82.001 C 188.800 82.945,191.789 82.276,191.928 81.300 C 192.105 80.053,190.199 79.997,189.874 81.240 M317.200 81.000 C 317.200 81.522,319.000 81.600,331.000 81.600 C 343.000 81.600,344.800 81.522,344.800 81.000 C 344.800 80.478,343.000 80.400,331.000 80.400 C 319.000 80.400,317.200 80.478,317.200 81.000 M186.400 83.600 C 186.400 84.573,187.797 84.706,188.157 83.767 C 188.515 82.834,188.489 82.800,187.400 82.800 C 186.667 82.800,186.400 83.013,186.400 83.600 M268.472 83.700 C 268.567 84.367,268.808 84.554,269.400 84.423 C 271.465 83.965,313.711 83.994,314.265 84.454 C 314.751 84.857,314.819 88.346,314.718 107.664 C 314.607 129.096,314.640 130.400,315.300 130.400 C 315.959 130.400,316.000 129.000,316.000 106.600 L 316.000 82.800 292.172 82.800 L 268.344 82.800 268.472 83.700 M184.000 84.767 C 184.000 85.582,184.675 86.002,185.500 85.698 C 186.466 85.343,186.071 84.000,185.000 84.000 C 184.281 84.000,184.000 84.216,184.000 84.767 M181.600 85.800 C 181.600 86.130,181.330 86.400,181.000 86.400 C 180.355 86.400,180.172 87.412,180.751 87.770 C 180.945 87.889,181.665 87.707,182.351 87.364 C 183.919 86.582,184.078 85.200,182.600 85.200 C 181.978 85.200,181.600 85.427,181.600 85.800 M178.076 88.300 C 178.150 88.685,178.566 89.000,179.000 89.000 C 179.434 89.000,179.850 88.685,179.924 88.300 C 180.025 87.776,179.793 87.600,179.000 87.600 C 178.207 87.600,177.975 87.776,178.076 88.300 M175.600 89.400 C 175.600 89.800,175.200 90.000,174.400 90.000 C 173.600 90.000,173.200 90.200,173.200 90.600 C 173.200 90.930,172.930 91.200,172.600 91.200 C 171.810 91.200,171.826 92.248,172.621 92.553 C 173.164 92.761,175.031 91.890,175.600 91.163 C 175.710 91.023,176.205 90.781,176.700 90.627 C 177.988 90.225,177.911 88.800,176.600 88.800 C 175.978 88.800,175.600 89.027,175.600 89.400 M169.676 93.100 C 169.750 93.485,170.166 93.800,170.600 93.800 C 171.034 93.800,171.450 93.485,171.524 93.100 C 171.625 92.576,171.393 92.400,170.600 92.400 C 169.807 92.400,169.575 92.576,169.676 93.100 M167.200 94.443 C 167.200 95.040,167.019 95.216,166.579 95.047 C 166.223 94.911,166.063 94.978,166.203 95.205 C 166.554 95.773,168.122 95.692,168.985 95.061 C 169.906 94.387,169.470 93.600,168.176 93.600 C 167.450 93.600,167.200 93.816,167.200 94.443 M163.600 96.557 C 163.600 97.182,164.678 97.723,165.236 97.378 C 166.001 96.905,165.583 96.000,164.600 96.000 C 164.012 96.000,163.600 96.230,163.600 96.557 M161.275 97.900 C 161.477 98.961,163.200 99.076,163.200 98.028 C 163.200 97.405,162.945 97.200,162.171 97.200 C 161.406 97.200,161.176 97.380,161.275 97.900 M158.800 99.000 C 158.800 99.330,158.530 99.600,158.200 99.600 C 157.870 99.600,157.600 99.758,157.600 99.950 C 157.600 100.142,157.046 100.411,156.370 100.546 C 155.479 100.724,155.177 100.985,155.274 101.491 C 155.470 102.504,156.810 102.647,157.063 101.682 C 157.201 101.152,157.729 100.819,158.670 100.666 C 161.208 100.254,162.296 98.400,160.000 98.400 C 159.200 98.400,158.800 98.600,158.800 99.000 M152.955 102.172 C 152.823 102.517,152.296 102.800,151.784 102.800 C 151.203 102.800,150.758 103.102,150.598 103.606 C 150.457 104.049,150.175 104.308,149.971 104.182 C 149.767 104.056,149.600 104.304,149.600 104.734 C 149.600 105.600,150.631 106.196,151.026 105.558 C 151.164 105.334,151.721 104.982,152.263 104.776 C 152.805 104.570,153.144 104.233,153.017 104.028 C 152.890 103.823,153.284 103.597,153.893 103.527 C 154.691 103.436,155.000 103.177,155.000 102.600 C 155.000 101.598,153.311 101.244,152.955 102.172 M147.272 106.100 C 147.342 106.595,147.670 107.000,148.000 107.000 C 148.330 107.000,148.658 106.595,148.728 106.100 C 148.826 105.407,148.659 105.200,148.000 105.200 C 147.341 105.200,147.174 105.407,147.272 106.100 M144.800 106.972 C 144.800 107.403,144.424 107.600,143.600 107.600 C 142.800 107.600,142.400 107.800,142.400 108.200 C 142.400 108.530,142.130 108.800,141.800 108.800 C 141.467 108.800,141.200 109.156,141.200 109.600 C 141.200 110.040,141.442 110.400,141.739 110.400 C 142.514 110.400,144.800 109.204,144.800 108.799 C 144.800 108.610,145.205 108.398,145.700 108.328 C 146.291 108.244,146.600 107.925,146.600 107.400 C 146.600 106.875,146.291 106.556,145.700 106.472 C 145.095 106.386,144.800 106.550,144.800 106.972 M138.872 110.900 C 138.956 111.491,139.275 111.800,139.800 111.800 C 140.325 111.800,140.644 111.491,140.728 110.900 C 140.833 110.162,140.666 110.000,139.800 110.000 C 138.934 110.000,138.767 110.162,138.872 110.900 M136.400 111.767 C 136.400 112.079,136.295 112.608,136.167 112.941 C 135.978 113.435,136.147 113.492,137.067 113.247 C 138.629 112.832,138.917 111.200,137.428 111.200 C 136.807 111.200,136.400 111.425,136.400 111.767 M132.800 114.357 C 132.800 115.117,133.713 115.753,134.161 115.306 C 134.735 114.732,134.363 113.600,133.600 113.600 C 133.082 113.600,132.800 113.867,132.800 114.357 M130.472 115.700 C 130.556 116.291,130.875 116.600,131.400 116.600 C 131.925 116.600,132.244 116.291,132.328 115.700 C 132.433 114.962,132.266 114.800,131.400 114.800 C 130.534 114.800,130.367 114.962,130.472 115.700 M128.000 116.600 C 128.000 116.930,127.730 117.200,127.400 117.200 C 127.070 117.200,126.800 117.476,126.800 117.813 C 126.800 118.565,128.090 119.129,128.309 118.472 C 128.396 118.212,128.686 118.000,128.953 118.000 C 129.693 118.000,130.364 117.171,130.126 116.551 C 129.835 115.793,128.000 115.835,128.000 116.600 M124.400 119.157 C 124.400 120.078,125.609 120.628,126.062 119.914 C 126.660 118.971,126.410 118.400,125.400 118.400 C 124.686 118.400,124.400 118.616,124.400 119.157 M122.000 120.200 C 122.000 120.600,121.600 120.800,120.800 120.800 C 120.140 120.800,119.600 121.005,119.600 121.256 C 119.600 121.507,119.285 121.945,118.900 122.229 C 118.357 122.630,118.307 122.855,118.677 123.230 C 119.192 123.753,122.000 122.721,122.000 122.009 C 122.000 121.815,122.405 121.598,122.900 121.528 C 124.281 121.332,124.396 119.600,123.028 119.600 C 122.381 119.600,122.000 119.822,122.000 120.200 M268.400 129.600 C 268.400 130.133,268.667 130.400,269.200 130.400 C 269.733 130.400,270.000 130.133,270.000 129.600 C 270.000 129.067,269.733 128.800,269.200 128.800 C 268.667 128.800,268.400 129.067,268.400 129.600 M194.700 143.864 C 194.095 144.183,193.600 144.673,193.600 144.954 C 193.600 145.234,193.195 145.449,192.700 145.432 C 192.059 145.409,191.763 145.659,191.672 146.300 C 191.522 147.358,193.065 147.617,193.455 146.600 C 193.582 146.270,194.071 145.997,194.543 145.993 C 195.545 145.985,197.379 144.213,197.007 143.612 C 196.678 143.080,196.062 143.147,194.700 143.864 M189.467 146.667 C 189.320 146.813,189.200 147.263,189.200 147.667 C 189.200 148.591,190.723 148.666,191.071 147.760 C 191.399 146.905,190.108 146.026,189.467 146.667 M186.700 148.687 C 185.937 148.802,185.600 149.090,185.600 149.627 C 185.600 150.751,187.456 150.685,187.817 149.547 C 188.029 148.877,188.163 148.813,188.438 149.247 C 188.715 149.686,188.789 149.655,188.794 149.100 C 188.797 148.715,188.575 148.427,188.300 148.460 C 188.025 148.493,187.305 148.595,186.700 148.687 M183.480 150.253 C 182.852 150.881,183.251 151.600,184.229 151.600 C 184.992 151.600,185.224 151.420,185.125 150.905 C 184.985 150.176,183.962 149.771,183.480 150.253 M180.300 152.229 C 179.695 152.557,179.200 153.000,179.200 153.213 C 179.200 153.426,178.750 153.600,178.200 153.600 C 177.467 153.600,177.200 153.813,177.200 154.400 C 177.200 154.987,177.467 155.200,178.200 155.200 C 178.822 155.200,179.200 154.973,179.200 154.600 C 179.200 154.200,179.600 154.000,180.400 154.000 C 181.200 154.000,181.600 153.800,181.600 153.400 C 181.600 153.070,181.870 152.800,182.200 152.800 C 182.530 152.800,182.800 152.530,182.800 152.200 C 182.800 151.443,181.725 151.456,180.300 152.229 M175.080 155.053 C 174.452 155.681,174.851 156.400,175.829 156.400 C 176.592 156.400,176.824 156.220,176.725 155.705 C 176.585 154.976,175.562 154.571,175.080 155.053 M172.301 156.767 C 170.886 157.582,170.826 158.800,172.200 158.800 C 172.822 158.800,173.200 158.573,173.200 158.200 C 173.200 157.870,173.470 157.600,173.800 157.600 C 174.524 157.600,174.605 156.558,173.900 156.309 C 173.625 156.213,172.905 156.418,172.301 156.767 M169.067 158.667 C 168.459 159.274,168.859 160.000,169.800 160.000 C 170.533 160.000,170.800 159.787,170.800 159.200 C 170.800 158.420,169.663 158.070,169.067 158.667 M166.680 159.853 C 166.052 160.481,166.451 161.200,167.429 161.200 C 168.192 161.200,168.424 161.020,168.325 160.505 C 168.185 159.776,167.162 159.371,166.680 159.853 M163.689 161.823 C 162.486 162.665,162.544 163.600,163.800 163.600 C 164.422 163.600,164.800 163.373,164.800 163.000 C 164.800 162.670,165.070 162.400,165.400 162.400 C 165.730 162.400,166.000 162.130,166.000 161.800 C 166.000 161.021,164.818 161.032,163.689 161.823 M160.667 163.467 C 160.059 164.074,160.459 164.800,161.400 164.800 C 162.133 164.800,162.400 164.587,162.400 164.000 C 162.400 163.220,161.263 162.870,160.667 163.467 M158.400 165.200 C 158.400 165.733,158.667 166.000,159.200 166.000 C 159.733 166.000,160.000 165.733,160.000 165.200 C 160.000 164.667,159.733 164.400,159.200 164.400 C 158.667 164.400,158.400 164.667,158.400 165.200 M156.988 166.381 C 157.219 166.754,157.073 166.814,156.431 166.610 C 155.478 166.307,154.400 166.965,154.400 167.849 C 154.400 168.170,154.817 168.400,155.400 168.400 C 156.022 168.400,156.400 168.173,156.400 167.800 C 156.400 167.470,156.670 167.200,157.000 167.200 C 157.710 167.200,157.794 166.567,157.138 166.162 C 156.838 165.976,156.786 166.053,156.988 166.381 M152.400 168.800 C 152.400 169.333,152.667 169.600,153.200 169.600 C 153.733 169.600,154.000 169.333,154.000 168.800 C 154.000 168.267,153.733 168.000,153.200 168.000 C 152.667 168.000,152.400 168.267,152.400 168.800 M149.600 169.922 C 149.050 170.295,148.540 170.735,148.467 170.900 C 148.393 171.065,147.995 171.200,147.581 171.200 C 146.937 171.200,146.000 172.251,146.000 172.974 C 146.000 173.098,146.540 173.200,147.200 173.200 C 148.000 173.200,148.400 173.000,148.400 172.600 C 148.400 172.227,148.778 172.000,149.400 172.000 C 150.022 172.000,150.400 171.773,150.400 171.400 C 150.400 171.070,150.683 170.800,151.029 170.800 C 151.402 170.800,151.606 170.528,151.529 170.133 C 151.348 169.198,150.763 169.134,149.600 169.922 M144.000 173.572 C 144.000 174.195,144.255 174.400,145.029 174.400 C 146.342 174.400,146.225 173.062,144.896 172.872 C 144.215 172.775,144.000 172.943,144.000 173.572 M142.000 174.400 C 142.000 174.620,141.740 174.800,141.423 174.800 C 141.105 174.800,140.610 175.115,140.323 175.500 C 140.035 175.885,139.440 176.200,139.000 176.200 C 138.475 176.200,138.156 176.509,138.072 177.100 C 137.968 177.833,138.135 178.000,138.972 178.000 C 139.619 178.000,140.000 177.778,140.000 177.400 C 140.000 177.000,140.400 176.800,141.200 176.800 C 142.000 176.800,142.400 176.600,142.400 176.200 C 142.400 175.870,142.670 175.600,143.000 175.600 C 143.797 175.600,143.771 174.551,142.967 174.243 C 142.114 173.915,142.000 173.934,142.000 174.400 M135.600 178.372 C 135.600 178.995,135.855 179.200,136.629 179.200 C 137.942 179.200,137.825 177.862,136.496 177.672 C 135.815 177.575,135.600 177.743,135.600 178.372 M133.600 179.553 C 132.546 179.739,132.168 180.023,132.072 180.700 C 131.895 181.947,133.801 182.003,134.126 180.760 C 134.247 180.298,134.508 180.020,134.706 180.142 C 134.905 180.265,135.067 180.103,135.067 179.782 C 135.067 179.462,135.052 179.224,135.033 179.253 C 135.015 179.282,134.370 179.417,133.600 179.553 M130.100 181.092 C 129.129 181.431,129.529 182.800,130.600 182.800 C 131.314 182.800,131.600 182.584,131.600 182.043 C 131.600 181.236,130.921 180.806,130.100 181.092 M126.800 183.114 C 126.250 183.484,125.710 183.904,125.600 184.047 C 125.490 184.190,125.040 184.375,124.600 184.458 C 123.311 184.700,123.286 186.400,124.572 186.400 C 125.219 186.400,125.600 186.178,125.600 185.800 C 125.600 185.400,126.000 185.200,126.800 185.200 C 127.600 185.200,128.000 185.000,128.000 184.600 C 128.000 184.270,128.270 184.000,128.600 184.000 C 128.933 184.000,129.200 183.644,129.200 183.200 C 129.200 182.217,128.189 182.181,126.800 183.114 M121.685 186.075 C 120.878 186.882,121.133 187.600,122.228 187.600 C 123.055 187.600,123.231 187.431,123.128 186.731 C 122.975 185.691,122.352 185.408,121.685 186.075 M118.199 188.156 C 117.538 188.677,116.638 189.172,116.199 189.256 C 114.911 189.501,114.888 191.200,116.172 191.200 C 116.819 191.200,117.200 190.978,117.200 190.600 C 117.200 190.200,117.600 190.000,118.400 190.000 C 119.200 190.000,119.600 189.800,119.600 189.400 C 119.600 189.070,119.870 188.800,120.200 188.800 C 120.533 188.800,120.800 188.444,120.800 188.000 C 120.800 186.913,119.690 186.980,118.199 188.156 M205.200 189.100 L 205.200 190.000 236.200 190.000 L 267.200 190.000 267.200 189.100 L 267.200 188.200 236.200 188.200 L 205.200 188.200 205.200 189.100 M113.475 190.658 C 112.859 191.275,113.216 192.400,114.028 192.400 C 114.650 192.400,114.824 192.184,114.728 191.531 C 114.595 190.629,113.952 190.181,113.475 190.658 M111.600 238.800 C 111.600 268.667,111.736 284.000,112.000 284.000 C 112.264 284.000,112.400 268.667,112.400 238.800 C 112.400 208.933,112.264 193.600,112.000 193.600 C 111.736 193.600,111.600 208.933,111.600 238.800 M112.875 285.900 C 113.077 286.961,114.800 287.076,114.800 286.028 C 114.800 285.405,114.545 285.200,113.771 285.200 C 113.006 285.200,112.776 285.380,112.875 285.900 M269.676 285.900 C 269.750 286.285,270.166 286.600,270.600 286.600 C 271.034 286.600,271.450 286.285,271.524 285.900 C 271.625 285.376,271.393 285.200,270.600 285.200 C 269.807 285.200,269.575 285.376,269.676 285.900 M115.200 287.157 C 115.200 287.851,115.921 288.400,116.833 288.400 C 117.035 288.400,117.200 287.950,117.200 287.400 C 117.200 286.600,117.000 286.400,116.200 286.400 C 115.486 286.400,115.200 286.616,115.200 287.157 M267.275 287.100 C 267.477 288.161,269.200 288.276,269.200 287.228 C 269.200 286.605,268.945 286.400,268.171 286.400 C 267.406 286.400,267.176 286.580,267.275 287.100 M264.800 288.200 C 264.800 288.530,264.530 288.800,264.200 288.800 C 263.870 288.800,263.600 289.093,263.600 289.450 C 263.600 289.966,263.860 290.048,264.862 289.848 C 267.294 289.361,268.186 287.600,266.000 287.600 C 265.200 287.600,264.800 287.800,264.800 288.200 M118.875 289.500 C 119.077 290.561,120.800 290.676,120.800 289.628 C 120.800 289.005,120.545 288.800,119.771 288.800 C 119.006 288.800,118.776 288.980,118.875 289.500 M121.200 290.520 C 121.200 291.288,122.017 291.968,122.649 291.726 C 123.652 291.341,123.303 290.000,122.200 290.000 C 121.646 290.000,121.200 290.232,121.200 290.520 M261.275 290.700 C 261.477 291.761,263.200 291.876,263.200 290.828 C 263.200 290.205,262.945 290.000,262.171 290.000 C 261.406 290.000,261.176 290.180,261.275 290.700 M123.600 292.010 C 123.600 292.511,123.991 292.968,124.626 293.210 C 126.082 293.763,126.800 293.694,126.800 293.000 C 126.800 292.670,126.530 292.400,126.200 292.400 C 125.870 292.400,125.600 292.130,125.600 291.800 C 125.600 291.427,125.222 291.200,124.600 291.200 C 123.863 291.200,123.600 291.413,123.600 292.010 M258.800 291.800 C 258.800 292.200,258.400 292.400,257.600 292.400 C 256.841 292.400,256.400 292.605,256.400 292.957 C 256.400 293.264,256.130 293.618,255.800 293.745 C 255.032 294.039,255.029 294.649,255.794 294.942 C 256.520 295.221,258.794 293.987,258.797 293.313 C 258.799 293.042,259.069 292.928,259.405 293.057 C 260.195 293.360,261.214 292.502,260.933 291.771 C 260.637 290.998,258.800 291.023,258.800 291.800 M127.276 294.300 C 127.350 294.685,127.766 295.000,128.200 295.000 C 128.634 295.000,129.050 294.685,129.124 294.300 C 129.225 293.776,128.993 293.600,128.200 293.600 C 127.407 293.600,127.175 293.776,127.276 294.300 M129.600 295.600 C 129.600 296.177,129.867 296.400,130.557 296.400 C 131.084 296.400,131.610 296.650,131.728 296.956 C 131.993 297.647,134.063 298.712,134.717 298.494 C 135.410 298.263,135.314 297.200,134.600 297.200 C 134.270 297.200,134.000 296.930,134.000 296.600 C 134.000 296.200,133.600 296.000,132.800 296.000 C 132.000 296.000,131.600 295.800,131.600 295.400 C 131.600 295.027,131.222 294.800,130.600 294.800 C 129.867 294.800,129.600 295.013,129.600 295.600 M252.875 295.500 C 253.077 296.561,254.800 296.676,254.800 295.628 C 254.800 295.005,254.545 294.800,253.771 294.800 C 253.006 294.800,252.776 294.980,252.875 295.500 M250.545 296.600 C 250.418 296.930,249.884 297.200,249.357 297.200 C 248.773 297.200,248.400 297.434,248.400 297.800 C 248.400 298.130,248.130 298.400,247.800 298.400 C 247.082 298.400,246.992 299.464,247.690 299.697 C 248.372 299.924,250.394 298.713,250.397 298.075 C 250.399 297.786,250.715 297.602,251.100 297.665 C 252.007 297.814,252.800 297.306,252.800 296.576 C 252.800 295.800,250.844 295.821,250.545 296.600 M135.676 299.100 C 135.750 299.485,136.166 299.800,136.600 299.800 C 137.034 299.800,137.450 299.485,137.524 299.100 C 137.625 298.576,137.393 298.400,136.600 298.400 C 135.807 298.400,135.575 298.576,135.676 299.100 M137.600 300.186 C 137.600 300.508,138.005 300.989,138.500 301.254 C 138.995 301.518,139.400 301.693,139.400 301.642 C 139.400 301.590,139.723 301.672,140.117 301.824 C 141.199 302.239,141.365 301.773,140.539 300.640 C 139.708 299.499,137.600 299.174,137.600 300.186 M244.800 300.000 C 244.800 300.220,244.333 300.400,243.763 300.400 C 243.074 300.400,242.657 300.660,242.523 301.172 C 242.409 301.607,242.090 301.856,241.791 301.741 C 241.475 301.620,241.298 301.788,241.353 302.157 C 241.458 302.876,242.000 303.527,242.000 302.935 C 242.000 302.716,242.396 302.551,242.880 302.568 C 243.391 302.587,243.937 302.251,244.183 301.768 C 244.416 301.310,244.836 301.012,245.116 301.105 C 245.969 301.390,246.803 300.872,246.550 300.215 C 246.292 299.540,244.800 299.357,244.800 300.000 M141.668 302.468 C 141.756 303.089,142.067 303.400,142.600 303.400 C 143.791 303.400,143.672 301.839,142.468 301.668 C 141.692 301.558,141.558 301.692,141.668 302.468 M144.000 303.847 C 144.000 304.747,144.139 304.867,145.000 304.702 C 145.675 304.573,146.000 304.690,146.000 305.062 C 146.000 305.891,148.689 307.071,149.265 306.495 C 149.875 305.885,148.132 304.016,146.943 304.007 C 146.471 304.003,145.982 303.730,145.855 303.400 C 145.441 302.321,144.000 302.668,144.000 303.847 M238.872 303.696 C 239.062 305.025,240.400 305.142,240.400 303.829 C 240.400 303.055,240.195 302.800,239.572 302.800 C 238.943 302.800,238.775 303.015,238.872 303.696 M236.400 304.600 C 236.400 305.000,236.000 305.200,235.200 305.200 C 234.400 305.200,234.000 305.400,234.000 305.800 C 234.000 306.130,233.730 306.400,233.400 306.400 C 233.067 306.400,232.800 306.756,232.800 307.200 C 232.800 307.653,233.067 308.000,233.414 308.000 C 234.258 308.000,236.000 306.813,236.000 306.238 C 236.000 305.980,236.495 305.776,237.100 305.784 C 237.942 305.796,238.230 305.589,238.328 304.900 C 238.432 304.167,238.265 304.000,237.428 304.000 C 236.781 304.000,236.400 304.222,236.400 304.600 M150.068 307.264 C 150.140 307.779,150.470 308.200,150.800 308.200 C 151.667 308.200,151.548 306.639,150.668 306.470 C 150.099 306.361,149.965 306.539,150.068 307.264 M152.072 308.500 C 152.268 309.881,154.000 309.996,154.000 308.628 C 154.000 307.791,153.809 307.600,152.972 307.600 C 152.135 307.600,151.968 307.767,152.072 308.500 M230.534 308.227 C 230.402 308.572,230.486 309.046,230.720 309.280 C 231.342 309.902,232.400 309.356,232.400 308.413 C 232.400 307.426,230.899 307.277,230.534 308.227 M154.400 309.525 C 154.400 310.366,156.364 311.950,157.100 311.702 C 157.809 311.463,157.723 310.000,157.000 310.000 C 156.670 310.000,156.400 309.730,156.400 309.400 C 156.400 309.027,156.022 308.800,155.400 308.800 C 154.701 308.800,154.400 309.018,154.400 309.525 M228.000 309.400 C 228.000 309.800,227.600 310.000,226.800 310.000 C 226.000 310.000,225.600 310.200,225.600 310.600 C 225.600 310.930,225.330 311.200,225.000 311.200 C 224.667 311.200,224.400 311.556,224.400 312.000 C 224.400 312.456,224.667 312.800,225.020 312.800 C 225.863 312.800,228.000 311.665,228.000 311.218 C 228.000 311.018,228.405 310.798,228.900 310.728 C 230.281 310.532,230.396 308.800,229.028 308.800 C 228.381 308.800,228.000 309.022,228.000 309.400 M158.359 312.100 C 158.542 312.595,158.941 313.000,159.246 313.000 C 159.551 313.000,159.858 312.595,159.928 312.100 C 160.032 311.370,159.864 311.200,159.041 311.200 C 158.156 311.200,158.069 311.316,158.359 312.100 M160.472 313.300 C 160.554 313.878,160.922 314.246,161.500 314.328 C 161.995 314.398,162.400 314.610,162.400 314.799 C 162.400 315.204,164.686 316.400,165.461 316.400 C 165.758 316.400,166.000 316.040,166.000 315.600 C 166.000 315.156,165.733 314.800,165.400 314.800 C 165.070 314.800,164.800 314.530,164.800 314.200 C 164.800 313.800,164.400 313.600,163.600 313.600 C 162.800 313.600,162.400 313.400,162.400 313.000 C 162.400 312.622,162.019 312.400,161.372 312.400 C 160.535 312.400,160.368 312.567,160.472 313.300 M222.072 313.300 C 222.156 313.891,222.475 314.200,223.000 314.200 C 223.525 314.200,223.844 313.891,223.928 313.300 C 224.033 312.562,223.866 312.400,223.000 312.400 C 222.134 312.400,221.967 312.562,222.072 313.300 M219.600 314.200 C 219.600 314.600,219.200 314.800,218.400 314.800 C 217.600 314.800,217.200 315.000,217.200 315.400 C 217.200 315.730,216.917 316.000,216.571 316.000 C 215.636 316.000,216.050 317.377,217.027 317.518 C 217.479 317.583,218.336 317.180,218.943 316.618 C 219.547 316.058,220.373 315.600,220.778 315.600 C 221.567 315.600,221.992 314.914,221.708 314.100 C 221.455 313.377,219.600 313.465,219.600 314.200 M166.400 316.767 C 166.400 317.582,167.075 318.002,167.900 317.698 C 168.866 317.343,168.471 316.000,167.400 316.000 C 166.681 316.000,166.400 316.216,166.400 316.767 M168.872 318.073 C 169.007 318.992,171.001 319.846,171.422 319.165 C 171.546 318.964,171.457 318.800,171.224 318.800 C 170.991 318.800,170.800 318.440,170.800 318.000 C 170.800 317.408,170.533 317.200,169.772 317.200 C 168.943 317.200,168.769 317.369,168.872 318.073 M213.600 317.957 C 213.600 318.744,214.602 319.369,215.236 318.978 C 216.062 318.467,215.608 317.200,214.600 317.200 C 213.886 317.200,213.600 317.416,213.600 317.957 M326.280 318.253 C 325.652 318.881,326.051 319.600,327.029 319.600 C 327.792 319.600,328.024 319.420,327.925 318.905 C 327.785 318.176,326.762 317.771,326.280 318.253 M57.394 318.809 C 56.960 319.513,58.007 320.800,59.014 320.800 C 60.070 320.800,60.343 319.963,59.500 319.311 C 58.656 318.658,57.638 318.415,57.394 318.809 M211.200 318.973 C 211.200 319.318,210.885 319.614,210.500 319.632 C 210.012 319.654,209.965 319.729,210.345 319.880 C 210.806 320.063,210.806 320.154,210.345 320.463 C 210.000 320.695,210.386 320.730,211.400 320.557 C 213.787 320.150,214.383 318.724,212.269 318.473 C 211.511 318.384,211.200 318.529,211.200 318.973 M172.800 320.333 C 172.800 321.277,173.136 321.599,173.839 321.330 C 174.724 320.990,174.532 319.600,173.600 319.600 C 173.091 319.600,172.800 319.867,172.800 320.333 M325.200 319.904 C 325.200 320.071,324.615 320.206,323.900 320.204 C 322.855 320.201,322.575 320.377,322.472 321.100 C 322.368 321.833,322.535 322.000,323.372 322.000 C 324.019 322.000,324.400 321.778,324.400 321.400 C 324.400 321.070,324.670 320.800,325.000 320.800 C 325.330 320.800,325.600 320.530,325.600 320.200 C 325.600 319.870,325.510 319.600,325.400 319.600 C 325.290 319.600,325.200 319.737,325.200 319.904 M60.267 320.667 C 59.659 321.274,60.059 322.000,61.000 322.000 C 61.733 322.000,62.000 321.787,62.000 321.200 C 62.000 320.420,60.863 320.070,60.267 320.667 M174.873 321.700 C 174.973 322.407,175.237 322.584,176.100 322.525 C 176.800 322.477,177.200 322.648,177.200 322.995 C 177.200 323.619,179.516 324.899,180.049 324.570 C 180.628 324.212,180.445 323.200,179.800 323.200 C 179.470 323.200,179.200 322.930,179.200 322.600 C 179.200 322.200,178.800 322.000,178.000 322.000 C 177.200 322.000,176.800 321.800,176.800 321.400 C 176.800 321.022,176.419 320.800,175.772 320.800 C 174.935 320.800,174.768 320.967,174.873 321.700 M207.600 321.351 C 207.600 322.089,208.660 322.933,209.182 322.611 C 210.051 322.074,209.641 320.800,208.600 320.800 C 208.017 320.800,207.600 321.030,207.600 321.351 M62.667 321.867 C 62.179 322.354,62.391 323.200,63.000 323.200 C 63.330 323.200,63.600 323.470,63.600 323.800 C 63.600 324.200,64.000 324.400,64.800 324.400 C 65.600 324.400,66.000 324.600,66.000 325.000 C 66.000 325.690,67.805 325.839,68.211 325.182 C 68.572 324.598,67.652 323.600,66.751 323.600 C 66.338 323.600,65.999 323.465,65.997 323.300 C 65.991 322.584,63.166 321.368,62.667 321.867 M320.267 321.867 C 319.659 322.474,320.059 323.200,321.000 323.200 C 321.733 323.200,322.000 322.987,322.000 322.400 C 322.000 321.620,320.863 321.270,320.267 321.867 M205.206 322.473 C 205.219 323.602,205.939 324.224,206.689 323.756 C 207.752 323.093,207.550 322.217,206.300 322.073 C 205.591 321.992,205.202 322.134,205.206 322.473 M318.000 323.171 C 318.000 323.407,317.752 323.600,317.449 323.600 C 317.146 323.600,316.674 323.870,316.400 324.200 C 316.126 324.530,315.583 324.800,315.194 324.800 C 314.542 324.800,314.000 325.541,314.000 326.433 C 314.000 326.635,314.450 326.800,315.000 326.800 C 315.622 326.800,316.000 326.573,316.000 326.200 C 316.000 325.800,316.400 325.600,317.200 325.600 C 318.000 325.600,318.400 325.400,318.400 325.000 C 318.400 324.670,318.683 324.400,319.029 324.400 C 319.886 324.400,319.590 323.048,318.695 322.875 C 318.313 322.802,318.000 322.935,318.000 323.171 M202.800 323.757 C 202.800 324.064,202.530 324.418,202.200 324.545 C 201.438 324.837,201.427 325.448,202.179 325.737 C 203.085 326.084,205.200 324.847,205.200 323.971 C 205.200 323.381,204.918 323.200,204.000 323.200 C 203.241 323.200,202.800 323.405,202.800 323.757 M180.800 324.920 C 180.800 325.688,181.617 326.368,182.249 326.126 C 183.252 325.741,182.903 324.400,181.800 324.400 C 181.246 324.400,180.800 324.632,180.800 324.920 M68.667 325.467 C 68.059 326.074,68.459 326.800,69.400 326.800 C 70.133 326.800,70.400 326.587,70.400 326.000 C 70.400 325.220,69.263 324.870,68.667 325.467 M183.272 326.500 C 183.354 327.078,183.722 327.446,184.300 327.528 C 184.795 327.598,185.200 327.815,185.200 328.009 C 185.200 328.529,187.889 329.716,188.380 329.412 C 189.014 329.021,188.884 328.000,188.200 328.000 C 187.870 328.000,187.600 327.730,187.600 327.400 C 187.600 327.000,187.200 326.800,186.400 326.800 C 185.600 326.800,185.200 326.600,185.200 326.200 C 185.200 325.822,184.819 325.600,184.172 325.600 C 183.335 325.600,183.168 325.767,183.272 326.500 M199.600 326.357 C 199.600 327.117,200.513 327.753,200.961 327.306 C 201.535 326.732,201.163 325.600,200.400 325.600 C 199.882 325.600,199.600 325.867,199.600 326.357 M312.239 326.294 C 311.665 326.868,312.037 328.000,312.800 328.000 C 313.318 328.000,313.600 327.733,313.600 327.243 C 313.600 326.483,312.687 325.847,312.239 326.294 M71.067 326.667 C 70.579 327.154,70.791 328.000,71.400 328.000 C 71.730 328.000,72.000 328.270,72.000 328.600 C 72.000 329.000,72.400 329.200,73.200 329.200 C 74.000 329.200,74.400 329.400,74.400 329.800 C 74.400 330.178,74.781 330.400,75.428 330.400 C 76.796 330.400,76.681 328.668,75.300 328.472 C 74.805 328.402,74.400 328.190,74.400 328.001 C 74.400 327.303,71.565 326.168,71.067 326.667 M197.200 327.400 C 197.200 327.800,196.800 328.000,196.000 328.000 C 195.200 328.000,194.800 328.200,194.800 328.600 C 194.800 328.930,194.530 329.200,194.200 329.200 C 193.870 329.200,193.600 329.476,193.600 329.813 C 193.600 330.540,194.769 331.084,195.140 330.529 C 195.283 330.316,195.670 330.018,196.000 329.866 C 198.920 328.527,200.175 326.800,198.229 326.800 C 197.581 326.800,197.200 327.022,197.200 327.400 M309.000 328.410 C 308.340 328.823,307.352 329.397,306.805 329.684 C 305.388 330.428,305.245 331.600,306.571 331.600 C 307.301 331.600,307.600 331.388,307.600 330.869 C 307.600 330.285,307.840 330.174,308.800 330.315 C 309.710 330.448,310.000 330.335,310.000 329.845 C 310.000 329.490,310.270 329.200,310.600 329.200 C 310.933 329.200,311.200 328.844,311.200 328.400 C 311.200 327.421,310.575 327.424,309.000 328.410 M189.200 330.028 C 189.200 330.657,189.415 330.825,190.096 330.728 C 191.425 330.538,191.542 329.200,190.229 329.200 C 189.455 329.200,189.200 329.405,189.200 330.028 M77.300 329.887 C 76.330 330.235,76.729 331.600,77.800 331.600 C 78.383 331.600,78.800 331.370,78.800 331.049 C 78.800 330.329,77.935 329.659,77.300 329.887 M191.600 331.200 C 191.600 331.640,191.840 332.000,192.133 332.000 C 192.886 332.000,193.181 331.615,192.930 330.961 C 192.603 330.110,191.600 330.290,191.600 331.200 M303.839 331.094 C 303.265 331.668,303.637 332.800,304.400 332.800 C 304.918 332.800,305.200 332.533,305.200 332.043 C 305.200 331.283,304.287 330.647,303.839 331.094 M79.467 331.467 C 78.979 331.954,79.191 332.800,79.800 332.800 C 80.130 332.800,80.400 333.070,80.400 333.400 C 80.400 333.773,80.778 334.000,81.400 334.000 C 82.885 334.000,82.718 332.617,81.139 331.829 C 79.673 331.098,79.806 331.127,79.467 331.467 M300.701 333.137 C 299.286 333.990,299.227 335.200,300.600 335.200 C 301.222 335.200,301.600 334.973,301.600 334.600 C 301.600 334.270,301.870 334.000,302.200 334.000 C 302.533 334.000,302.800 333.644,302.800 333.200 C 302.800 332.251,302.198 332.233,300.701 333.137 M83.080 333.453 C 82.377 334.156,82.824 335.200,83.828 335.200 C 84.664 335.200,84.832 335.033,84.728 334.304 C 84.601 333.417,83.622 332.911,83.080 333.453 M85.700 334.687 C 84.857 334.990,85.104 336.400,86.000 336.400 C 86.525 336.400,86.800 336.133,86.800 335.624 C 86.800 334.742,86.429 334.426,85.700 334.687 M297.867 334.667 C 297.186 335.347,297.631 336.400,298.600 336.400 C 299.665 336.400,299.914 335.674,299.120 334.880 C 298.576 334.336,298.252 334.281,297.867 334.667 M295.200 336.772 C 295.200 337.395,295.455 337.600,296.229 337.600 C 297.542 337.600,297.425 336.262,296.096 336.072 C 295.415 335.975,295.200 336.143,295.200 336.772 M88.727 337.006 C 88.153 337.580,88.934 338.800,89.874 338.800 C 90.663 338.800,90.831 338.623,90.728 337.900 C 90.606 337.044,89.281 336.452,88.727 337.006 M91.480 338.253 C 90.777 338.956,91.224 340.000,92.228 340.000 C 93.064 340.000,93.232 339.833,93.128 339.104 C 93.001 338.217,92.022 337.711,91.480 338.253 M291.506 338.770 C 291.210 339.193,290.615 339.508,290.184 339.470 C 289.649 339.422,289.360 339.686,289.272 340.300 C 289.168 341.033,289.335 341.200,290.172 341.200 C 290.819 341.200,291.200 340.978,291.200 340.600 C 291.200 340.200,291.600 340.000,292.400 340.000 C 293.200 340.000,293.600 339.800,293.600 339.400 C 293.600 339.070,293.915 338.787,294.300 338.772 C 294.899 338.748,294.884 338.694,294.200 338.400 C 292.896 337.840,292.079 337.952,291.506 338.770 M93.600 340.400 C 93.600 340.844,93.867 341.200,94.200 341.200 C 94.530 341.200,94.800 341.470,94.800 341.800 C 94.800 342.200,95.200 342.400,96.000 342.400 C 96.800 342.400,97.200 342.600,97.200 343.000 C 97.200 343.378,97.581 343.600,98.228 343.600 C 99.514 343.600,99.489 341.900,98.200 341.658 C 97.760 341.575,97.310 341.389,97.200 341.244 C 96.099 339.797,93.600 339.211,93.600 340.400 M286.300 341.464 C 285.695 341.783,285.200 342.201,285.200 342.394 C 285.200 342.587,284.795 342.802,284.300 342.872 C 282.919 343.068,282.804 344.800,284.172 344.800 C 284.819 344.800,285.200 344.578,285.200 344.200 C 285.200 343.800,285.600 343.600,286.400 343.600 C 287.200 343.600,287.600 343.400,287.600 343.000 C 287.600 342.670,287.870 342.400,288.200 342.400 C 288.533 342.400,288.800 342.044,288.800 341.600 C 288.800 340.660,287.918 340.612,286.300 341.464 M99.875 343.058 C 99.259 343.675,99.616 344.800,100.428 344.800 C 101.050 344.800,101.224 344.584,101.128 343.931 C 100.995 343.029,100.352 342.581,99.875 343.058 M102.162 344.578 C 101.249 345.246,102.800 347.181,104.257 347.193 C 104.729 347.197,105.218 347.470,105.345 347.800 C 105.471 348.130,106.011 348.400,106.545 348.400 C 107.078 348.400,107.618 348.670,107.745 349.000 C 108.135 350.018,109.678 349.758,109.527 348.700 C 109.432 348.045,109.160 347.825,108.523 347.891 C 107.952 347.950,107.561 347.707,107.397 347.191 C 107.238 346.689,106.791 346.400,106.173 346.400 C 105.638 346.400,105.200 346.254,105.200 346.075 C 105.200 345.180,102.894 344.043,102.162 344.578 M281.080 344.253 C 280.377 344.956,280.824 346.000,281.828 346.000 C 282.664 346.000,282.832 345.833,282.728 345.104 C 282.601 344.217,281.622 343.711,281.080 344.253 M278.100 346.144 C 276.801 346.787,276.872 348.400,278.200 348.400 C 278.822 348.400,279.200 348.173,279.200 347.800 C 279.200 347.470,279.470 347.200,279.800 347.200 C 280.133 347.200,280.400 346.844,280.400 346.400 C 280.400 345.511,279.565 345.418,278.100 346.144 M275.080 347.853 C 274.377 348.556,274.824 349.600,275.828 349.600 C 276.664 349.600,276.832 349.433,276.728 348.704 C 276.601 347.817,275.622 347.311,275.080 347.853 M272.650 349.413 C 272.283 350.370,272.306 350.400,273.429 350.400 C 274.192 350.400,274.424 350.220,274.325 349.705 C 274.148 348.788,272.969 348.583,272.650 349.413 M110.267 349.467 C 109.806 349.927,109.975 350.400,110.600 350.400 C 110.930 350.400,111.200 350.670,111.200 351.000 C 111.200 351.400,111.600 351.600,112.400 351.600 C 113.975 351.600,113.986 350.620,112.420 349.810 C 111.120 349.138,110.667 349.066,110.267 349.467 M270.800 350.795 C 270.470 350.986,269.885 351.240,269.500 351.359 C 268.461 351.680,268.626 352.800,269.712 352.800 C 270.359 352.800,270.757 352.450,271.078 351.600 C 271.327 350.940,271.501 350.411,271.465 350.424 C 271.429 350.436,271.130 350.603,270.800 350.795 M113.880 351.453 C 113.252 352.081,113.651 352.800,114.629 352.800 C 115.392 352.800,115.624 352.620,115.525 352.105 C 115.385 351.376,114.362 350.971,113.880 351.453 M116.500 352.667 C 115.577 353.036,115.960 354.000,117.029 354.000 C 117.775 354.000,118.023 353.816,117.929 353.333 C 117.787 352.600,117.270 352.359,116.500 352.667 M266.680 352.653 C 266.052 353.281,266.451 354.000,267.429 354.000 C 268.192 354.000,268.424 353.820,268.325 353.305 C 268.185 352.576,267.162 352.171,266.680 352.653 M264.200 353.994 C 263.980 354.195,263.411 354.713,262.936 355.144 C 262.461 355.575,261.743 355.991,261.341 356.068 C 260.131 356.301,260.156 357.600,261.371 357.600 C 262.019 357.600,262.400 357.378,262.400 357.000 C 262.400 356.600,262.800 356.400,263.600 356.400 C 264.400 356.400,264.800 356.200,264.800 355.800 C 264.800 355.470,265.083 355.200,265.429 355.200 C 265.812 355.200,266.006 354.927,265.925 354.505 C 265.774 353.723,264.808 353.437,264.200 353.994 M118.655 354.600 C 118.782 354.930,119.046 355.200,119.243 355.200 C 119.439 355.200,119.600 355.470,119.600 355.800 C 119.600 356.203,120.003 356.400,120.829 356.400 C 122.373 356.400,122.344 355.074,120.796 354.866 C 120.248 354.793,119.629 354.568,119.420 354.366 C 118.833 353.800,118.399 353.933,118.655 354.600 M122.280 356.253 C 121.652 356.881,122.051 357.600,123.029 357.600 C 123.792 357.600,124.024 357.420,123.925 356.905 C 123.785 356.176,122.762 355.771,122.280 356.253 M124.883 357.506 C 124.190 357.737,124.286 358.800,125.000 358.800 C 125.330 358.800,125.600 359.070,125.600 359.400 C 125.600 359.800,126.000 360.000,126.800 360.000 C 127.600 360.000,128.000 360.200,128.000 360.600 C 128.000 360.973,128.378 361.200,129.000 361.200 C 129.733 361.200,130.000 360.987,130.000 360.400 C 130.000 359.823,129.733 359.600,129.043 359.600 C 128.516 359.600,127.990 359.350,127.872 359.044 C 127.607 358.353,125.537 357.288,124.883 357.506 M258.200 357.600 C 257.831 358.198,258.345 358.800,259.224 358.800 C 259.733 358.800,260.000 358.525,260.000 358.000 C 260.000 357.152,258.661 356.854,258.200 357.600 M255.443 359.200 C 254.806 359.606,254.176 360.111,254.043 360.323 C 253.909 360.534,253.442 360.775,253.005 360.858 C 251.748 361.097,251.719 362.400,252.971 362.400 C 253.619 362.400,254.000 362.178,254.000 361.800 C 254.000 361.400,254.400 361.200,255.200 361.200 C 256.000 361.200,256.400 361.000,256.400 360.600 C 256.400 360.270,256.683 360.000,257.029 360.000 C 257.402 360.000,257.606 359.728,257.529 359.333 C 257.346 358.388,256.774 358.351,255.443 359.200 M130.680 361.053 C 130.052 361.681,130.451 362.400,131.429 362.400 C 132.192 362.400,132.424 362.220,132.325 361.705 C 132.185 360.976,131.162 360.571,130.680 361.053 M133.290 362.303 C 132.592 362.536,132.682 363.600,133.400 363.600 C 133.730 363.600,134.000 363.870,134.000 364.200 C 134.000 364.573,134.378 364.800,135.000 364.800 C 135.687 364.800,135.999 364.581,135.997 364.100 C 135.995 363.327,134.063 362.046,133.290 362.303 M250.267 362.267 C 249.716 362.817,250.029 363.600,250.800 363.600 C 251.333 363.600,251.600 363.333,251.600 362.800 C 251.600 362.029,250.817 361.716,250.267 362.267 M247.204 364.116 C 245.674 364.890,245.655 366.000,247.171 366.000 C 247.997 366.000,248.400 365.803,248.400 365.400 C 248.400 365.070,248.670 364.800,249.000 364.800 C 249.330 364.800,249.600 364.530,249.600 364.200 C 249.600 363.471,248.551 363.434,247.204 364.116 M136.400 365.172 C 136.400 365.795,136.655 366.000,137.429 366.000 C 138.742 366.000,138.625 364.662,137.296 364.472 C 136.615 364.375,136.400 364.543,136.400 365.172 M138.800 366.400 C 138.800 367.332,140.190 367.524,140.530 366.639 C 140.799 365.936,140.477 365.600,139.533 365.600 C 139.067 365.600,138.800 365.891,138.800 366.400 M244.000 366.372 C 244.000 366.995,244.255 367.200,245.029 367.200 C 246.342 367.200,246.225 365.862,244.896 365.672 C 244.215 365.575,244.000 365.743,244.000 366.372 M141.690 367.103 C 140.992 367.336,141.082 368.400,141.800 368.400 C 142.130 368.400,142.400 368.670,142.400 369.000 C 142.400 369.373,142.778 369.600,143.400 369.600 C 144.087 369.600,144.399 369.381,144.397 368.900 C 144.395 368.127,142.463 366.846,141.690 367.103 M241.880 367.053 C 241.252 367.681,241.651 368.400,242.629 368.400 C 243.392 368.400,243.624 368.220,243.525 367.705 C 243.385 366.976,242.362 366.571,241.880 367.053 M238.080 369.280 C 237.226 370.134,237.542 370.800,238.800 370.800 C 239.727 370.800,240.000 370.621,240.000 370.013 C 240.000 369.443,240.194 369.288,240.700 369.450 C 241.291 369.640,241.306 369.608,240.800 369.244 C 240.000 368.669,238.674 368.686,238.080 369.280 M144.800 369.972 C 144.800 370.595,145.055 370.800,145.829 370.800 C 147.142 370.800,147.025 369.462,145.696 369.272 C 145.015 369.175,144.800 369.343,144.800 369.972 M147.200 371.200 C 147.200 371.733,147.467 372.000,148.000 372.000 C 148.533 372.000,148.800 371.733,148.800 371.200 C 148.800 370.667,148.533 370.400,148.000 370.400 C 147.467 370.400,147.200 370.667,147.200 371.200 M235.600 371.172 C 235.600 371.795,235.855 372.000,236.629 372.000 C 237.942 372.000,237.825 370.662,236.496 370.472 C 235.815 370.375,235.600 370.543,235.600 371.172 M232.800 372.309 C 232.250 372.682,231.710 373.100,231.600 373.239 C 231.490 373.378,230.995 373.619,230.500 373.773 C 229.212 374.175,229.289 375.600,230.600 375.600 C 231.222 375.600,231.600 375.373,231.600 375.000 C 231.600 374.600,232.000 374.400,232.800 374.400 C 233.600 374.400,234.000 374.200,234.000 373.800 C 234.000 373.470,234.283 373.200,234.629 373.200 C 235.432 373.200,235.217 371.843,234.395 371.720 C 234.068 371.671,233.350 371.936,232.800 372.309 M150.800 372.824 C 150.800 373.057,150.607 373.128,150.370 372.982 C 150.134 372.836,150.178 373.095,150.467 373.558 C 151.142 374.639,152.800 374.699,152.800 373.643 C 152.800 373.226,152.515 372.776,152.167 372.643 C 151.240 372.287,150.800 372.345,150.800 372.824 M153.067 374.267 C 152.459 374.874,152.859 375.600,153.800 375.600 C 154.533 375.600,154.800 375.387,154.800 374.800 C 154.800 374.020,153.663 373.670,153.067 374.267 M227.649 375.311 C 226.883 376.077,227.151 376.800,228.200 376.800 C 228.914 376.800,229.200 376.584,229.200 376.043 C 229.200 375.128,228.270 374.690,227.649 375.311 M155.467 375.467 C 154.979 375.954,155.191 376.800,155.800 376.800 C 156.130 376.800,156.400 377.070,156.400 377.400 C 156.400 377.800,156.800 378.000,157.600 378.000 C 158.400 378.000,158.800 378.200,158.800 378.600 C 158.800 379.000,159.200 379.200,160.000 379.200 C 160.718 379.200,161.200 378.991,161.200 378.680 C 161.200 377.938,160.362 377.200,159.520 377.200 C 159.124 377.200,158.800 377.033,158.800 376.829 C 158.800 376.110,155.977 374.956,155.467 375.467 M225.200 376.676 C 225.200 377.020,224.222 377.607,222.300 378.416 C 220.858 379.022,220.788 380.400,222.200 380.400 C 222.822 380.400,223.200 380.173,223.200 379.800 C 223.200 379.400,223.600 379.200,224.400 379.200 C 225.200 379.200,225.600 379.000,225.600 378.600 C 225.600 378.270,225.883 378.000,226.229 378.000 C 227.086 378.000,226.790 376.648,225.895 376.475 C 225.513 376.402,225.200 376.492,225.200 376.676 M161.467 379.067 C 160.859 379.674,161.259 380.400,162.200 380.400 C 162.933 380.400,163.200 380.187,163.200 379.600 C 163.200 378.820,162.063 378.470,161.467 379.067 M219.195 380.206 C 218.607 380.914,219.015 381.600,220.024 381.600 C 220.519 381.600,220.800 381.326,220.800 380.843 C 220.800 379.875,219.799 379.478,219.195 380.206 M164.100 380.267 C 163.397 380.548,163.475 381.600,164.200 381.600 C 164.530 381.600,164.800 381.870,164.800 382.200 C 164.800 382.600,165.200 382.800,166.000 382.800 C 166.800 382.800,167.200 383.000,167.200 383.400 C 167.200 383.778,167.581 384.000,168.228 384.000 C 169.065 384.000,169.232 383.833,169.128 383.100 C 169.037 382.459,168.741 382.209,168.100 382.232 C 167.605 382.249,167.200 382.053,167.200 381.796 C 167.200 381.539,166.705 381.080,166.100 380.777 C 164.602 380.026,164.662 380.042,164.100 380.267 M216.300 381.867 C 214.866 382.619,214.801 384.000,216.200 384.000 C 216.822 384.000,217.200 383.773,217.200 383.400 C 217.200 383.070,217.483 382.800,217.829 382.800 C 218.202 382.800,218.406 382.528,218.329 382.133 C 218.157 381.243,217.623 381.173,216.300 381.867 M213.285 383.675 C 212.478 384.482,212.733 385.200,213.828 385.200 C 214.655 385.200,214.831 385.031,214.728 384.331 C 214.575 383.291,213.952 383.008,213.285 383.675 M169.600 384.400 C 169.600 384.987,169.867 385.200,170.600 385.200 C 171.333 385.200,171.600 384.987,171.600 384.400 C 171.600 383.813,171.333 383.600,170.600 383.600 C 169.867 383.600,169.600 383.813,169.600 384.400 M211.039 384.694 C 210.465 385.268,210.837 386.400,211.600 386.400 C 212.118 386.400,212.400 386.133,212.400 385.643 C 212.400 384.883,211.487 384.247,211.039 384.694 M173.127 385.806 C 172.553 386.380,173.334 387.600,174.274 387.600 C 175.063 387.600,175.231 387.423,175.128 386.700 C 175.006 385.844,173.681 385.252,173.127 385.806 M208.000 386.777 C 206.550 387.148,206.364 388.800,207.772 388.800 C 208.392 388.800,208.800 388.575,208.800 388.233 C 208.800 387.922,209.025 387.584,209.300 387.483 C 210.219 387.146,209.047 386.509,208.000 386.777 M175.880 387.053 C 175.177 387.756,175.624 388.800,176.628 388.800 C 177.464 388.800,177.632 388.633,177.528 387.904 C 177.401 387.017,176.422 386.511,175.880 387.053 M178.500 388.286 C 177.792 388.542,177.877 390.000,178.600 390.000 C 178.930 390.000,179.200 390.270,179.200 390.600 C 179.200 391.000,179.600 391.200,180.400 391.200 C 181.200 391.200,181.600 391.400,181.600 391.800 C 181.600 392.178,181.981 392.400,182.628 392.400 C 183.914 392.400,183.889 390.699,182.600 390.459 C 182.160 390.378,181.656 390.061,181.480 389.755 C 181.304 389.450,180.958 389.200,180.712 389.200 C 180.465 389.200,179.979 388.953,179.631 388.652 C 179.284 388.351,178.775 388.186,178.500 388.286 M204.939 388.667 C 204.794 389.070,204.604 389.535,204.515 389.700 C 204.426 389.865,204.826 390.000,205.404 390.000 C 206.256 390.000,206.431 389.835,206.328 389.131 C 206.163 388.013,205.278 387.717,204.939 388.667 M201.708 390.391 C 200.855 390.911,200.496 391.385,200.651 391.789 C 200.959 392.591,202.800 392.600,202.800 391.800 C 202.800 391.470,203.070 391.200,203.400 391.200 C 203.733 391.200,204.000 390.844,204.000 390.400 C 204.000 389.392,203.351 389.389,201.708 390.391 M184.267 391.867 C 183.586 392.547,184.031 393.600,185.000 393.600 C 186.151 393.600,186.432 392.252,185.367 391.843 C 184.584 391.542,184.591 391.542,184.267 391.867 M198.900 391.865 C 198.625 391.976,198.400 392.320,198.400 392.629 C 198.400 392.973,198.052 393.154,197.501 393.095 C 196.838 393.025,196.569 393.236,196.473 393.900 C 196.322 394.958,197.865 395.218,198.255 394.200 C 198.382 393.870,198.916 393.600,199.443 393.600 C 200.197 393.600,200.400 393.388,200.400 392.600 C 200.400 391.640,199.974 391.432,198.900 391.865 M186.400 394.000 C 186.400 394.444,186.667 394.800,187.000 394.800 C 187.330 394.800,187.600 395.070,187.600 395.400 C 187.600 395.800,188.000 396.000,188.800 396.000 C 189.600 396.000,190.000 396.200,190.000 396.600 C 190.000 397.720,194.008 397.389,195.161 396.174 C 196.370 394.899,195.756 393.861,194.321 394.756 C 193.289 395.401,190.389 395.429,189.999 394.798 C 189.143 393.413,186.400 392.805,186.400 394.000 " stroke="none" fill="#c0e0ec" fill-rule="evenodd"></path><path id="path1" d="M284.491 35.300 L 284.600 43.000 292.200 43.000 L 299.800 43.000 299.909 35.300 L 300.017 27.600 292.200 27.600 L 284.383 27.600 284.491 35.300 M222.000 70.796 L 222.000 88.800 239.804 88.800 L 257.608 88.800 257.504 70.900 L 257.400 53.000 239.700 52.896 L 222.000 52.792 222.000 70.796 M317.200 66.195 L 317.200 79.600 331.005 79.600 L 344.811 79.600 344.705 66.300 L 344.600 53.000 330.900 52.895 L 317.200 52.789 317.200 66.195 M270.497 84.730 C 270.100 84.983,270.015 89.672,270.097 106.826 L 270.200 128.600 292.200 128.600 L 314.200 128.600 314.200 106.600 L 314.200 84.600 292.600 84.504 C 280.720 84.451,270.773 84.553,270.497 84.730 M207.167 128.700 C 207.122 129.085,207.066 142.540,207.042 158.600 L 207.000 187.800 236.300 187.903 L 265.600 188.005 265.595 158.903 C 265.592 142.896,265.481 129.395,265.348 128.900 L 265.107 128.000 236.178 128.000 C 208.925 128.000,207.245 128.041,207.167 128.700 " stroke="none" fill="#04346c" fill-rule="evenodd"></path><path id="path2" d="M57.067 4.466 C 56.673 4.687,56.092 4.768,55.776 4.646 C 55.275 4.454,55.200 24.977,55.200 161.413 C 55.200 295.332,55.282 318.400,55.757 318.400 C 56.064 318.400,56.429 318.698,56.568 319.061 C 56.797 319.658,56.870 319.662,57.311 319.098 C 57.928 318.309,59.585 318.854,59.868 319.940 C 60.008 320.474,60.328 320.626,61.031 320.492 C 61.821 320.341,62.000 320.471,62.000 321.196 C 62.000 321.870,62.165 322.022,62.682 321.824 C 63.372 321.559,66.000 322.721,66.000 323.291 C 66.000 323.461,66.338 323.600,66.751 323.600 C 67.648 323.600,68.573 324.597,68.215 325.176 C 68.050 325.442,68.391 325.502,69.180 325.344 C 70.243 325.131,70.400 325.213,70.400 325.977 C 70.400 326.644,70.575 326.798,71.129 326.622 C 71.907 326.376,74.400 327.427,74.400 328.001 C 74.400 328.190,74.798 328.402,75.284 328.472 C 75.803 328.547,76.256 328.966,76.384 329.488 C 76.545 330.149,76.750 330.283,77.187 330.011 C 77.876 329.582,78.800 330.201,78.800 331.092 C 78.800 331.446,79.034 331.596,79.379 331.463 C 80.318 331.103,82.400 332.354,82.400 333.278 C 82.400 333.958,82.501 334.014,82.995 333.604 C 83.796 332.939,84.800 333.383,84.800 334.402 C 84.800 335.085,84.930 335.159,85.547 334.828 C 86.411 334.366,86.800 334.627,86.800 335.667 C 86.800 336.151,87.105 336.411,87.700 336.432 C 88.195 336.449,88.374 336.554,88.098 336.666 C 87.821 336.777,87.694 337.029,87.816 337.226 C 87.940 337.426,88.357 337.384,88.766 337.129 C 89.751 336.514,90.800 336.982,90.800 338.036 C 90.800 338.754,90.900 338.815,91.395 338.404 C 92.188 337.746,93.200 338.179,93.200 339.175 C 93.200 339.734,93.387 339.903,93.822 339.736 C 94.448 339.496,97.200 340.740,97.200 341.263 C 97.200 341.418,97.605 341.602,98.100 341.672 C 98.686 341.755,99.046 342.122,99.131 342.723 C 99.235 343.458,99.375 343.553,99.813 343.189 C 100.515 342.607,101.200 343.019,101.200 344.024 C 101.200 344.902,101.359 344.957,102.360 344.421 C 102.905 344.130,103.366 344.314,104.359 345.221 C 105.069 345.870,105.986 346.400,106.398 346.400 C 106.809 346.400,107.259 346.756,107.397 347.191 C 107.561 347.707,107.952 347.950,108.523 347.891 C 109.164 347.824,109.432 348.045,109.529 348.717 C 109.628 349.410,109.844 349.576,110.410 349.397 C 111.337 349.103,113.600 350.221,113.600 350.973 C 113.600 351.333,113.886 351.450,114.424 351.310 C 115.035 351.150,115.307 351.322,115.478 351.977 C 115.662 352.682,115.906 352.810,116.688 352.614 C 117.421 352.430,117.714 352.548,117.854 353.084 C 118.059 353.869,119.722 354.800,120.917 354.800 C 121.334 354.800,121.764 355.139,121.872 355.554 C 122.008 356.073,122.314 356.243,122.858 356.101 C 123.428 355.952,123.710 356.136,123.875 356.764 C 124.004 357.259,124.381 357.599,124.751 357.554 C 125.720 357.436,127.588 358.303,127.853 358.994 C 127.981 359.327,128.516 359.600,129.043 359.600 C 129.736 359.600,130.000 359.822,130.000 360.408 C 130.000 361.074,130.179 361.170,131.025 360.958 C 131.853 360.750,132.092 360.867,132.275 361.567 C 132.405 362.063,132.779 362.397,133.151 362.349 C 134.192 362.214,136.000 363.268,136.000 364.009 C 136.000 364.518,136.250 364.641,136.996 364.499 C 137.708 364.362,138.078 364.521,138.296 365.054 C 138.478 365.502,139.000 365.800,139.600 365.800 C 140.348 365.800,140.569 365.985,140.475 366.532 C 140.381 367.087,140.574 367.240,141.275 367.166 C 142.567 367.031,144.400 367.994,144.400 368.809 C 144.400 369.323,144.650 369.441,145.424 369.293 C 146.203 369.144,146.498 369.287,146.655 369.887 C 146.808 370.474,147.111 370.630,147.831 370.492 C 148.609 370.343,148.800 370.473,148.800 371.153 C 148.800 371.755,149.060 372.009,149.700 372.032 C 150.195 372.049,150.375 372.154,150.100 372.265 C 149.825 372.376,149.600 372.632,149.600 372.833 C 149.600 373.270,150.495 373.144,150.850 372.657 C 151.267 372.085,152.800 372.804,152.800 373.571 C 152.800 374.121,153.034 374.244,153.800 374.098 C 154.620 373.941,154.800 374.064,154.800 374.780 C 154.800 375.444,154.976 375.598,155.529 375.422 C 156.307 375.176,158.800 376.227,158.800 376.801 C 158.800 376.990,159.200 377.202,159.690 377.272 C 160.179 377.342,160.764 377.760,160.990 378.200 C 161.256 378.719,161.716 378.955,162.300 378.872 C 162.998 378.773,163.200 378.941,163.200 379.619 C 163.200 380.304,163.378 380.447,164.023 380.278 C 164.930 380.041,167.193 381.149,167.197 381.832 C 167.199 382.069,167.605 382.249,168.100 382.232 C 168.719 382.210,169.037 382.459,169.118 383.028 C 169.214 383.700,169.459 383.823,170.418 383.683 C 171.409 383.537,171.600 383.646,171.600 384.355 C 171.600 384.891,171.856 385.202,172.300 385.206 C 172.887 385.211,172.905 385.272,172.412 385.584 C 172.088 385.789,171.935 386.069,172.073 386.206 C 172.210 386.343,172.676 386.235,173.108 385.965 C 174.144 385.318,175.200 385.758,175.200 386.836 C 175.200 387.554,175.300 387.615,175.795 387.204 C 176.596 386.539,177.600 386.983,177.600 388.002 C 177.600 388.689,177.728 388.760,178.358 388.422 C 178.921 388.121,179.242 388.169,179.607 388.608 C 179.877 388.934,180.337 389.200,180.629 389.200 C 180.921 389.200,181.304 389.450,181.480 389.755 C 181.656 390.061,182.160 390.378,182.600 390.459 C 183.071 390.547,183.454 390.986,183.531 391.527 C 183.631 392.229,183.784 392.345,184.180 392.016 C 184.891 391.427,186.000 391.922,186.000 392.830 C 186.000 393.330,186.199 393.499,186.603 393.343 C 187.284 393.082,189.861 394.184,190.076 394.827 C 190.270 395.411,193.476 395.400,194.183 394.814 C 194.501 394.550,195.117 394.447,195.551 394.584 C 196.161 394.778,196.369 394.627,196.471 393.917 C 196.569 393.236,196.833 393.024,197.501 393.095 C 198.056 393.154,198.400 392.973,198.400 392.622 C 198.400 391.817,200.006 391.382,200.488 392.057 C 200.781 392.468,200.820 392.427,200.646 391.889 C 200.369 391.030,202.604 389.482,203.722 389.758 C 204.211 389.879,204.563 389.624,204.812 388.968 C 205.215 387.908,205.782 387.723,206.259 388.496 C 206.467 388.832,206.640 388.680,206.795 388.022 C 207.092 386.763,209.014 386.152,209.587 387.135 C 209.944 387.746,209.977 387.743,209.988 387.100 C 209.995 386.715,210.180 386.400,210.400 386.400 C 210.620 386.400,210.800 386.070,210.800 385.667 C 210.800 384.627,211.189 384.366,212.053 384.828 C 212.619 385.131,212.800 385.091,212.800 384.663 C 212.800 383.676,213.905 383.023,214.600 383.600 C 215.100 384.015,215.200 383.962,215.200 383.278 C 215.200 382.275,217.213 381.174,218.454 381.498 C 219.068 381.659,219.238 381.584,219.028 381.245 C 218.531 380.441,219.560 379.550,220.442 380.022 C 221.065 380.356,221.200 380.290,221.200 379.653 C 221.200 379.180,221.628 378.710,222.300 378.445 C 223.584 377.939,224.894 377.145,225.250 376.657 C 225.388 376.469,225.883 376.436,226.350 376.584 C 226.934 376.769,227.200 376.683,227.200 376.307 C 227.200 375.346,228.048 374.798,228.861 375.233 C 229.463 375.555,229.600 375.482,229.600 374.841 C 229.600 374.375,229.967 373.939,230.500 373.773 C 230.995 373.619,231.490 373.377,231.600 373.237 C 232.224 372.440,234.137 371.589,234.818 371.806 C 235.427 371.999,235.600 371.865,235.600 371.199 C 235.600 370.541,235.808 370.374,236.500 370.472 C 237.084 370.555,237.544 370.319,237.809 369.800 C 238.039 369.352,238.717 368.943,239.352 368.869 C 240.078 368.786,240.390 368.892,240.222 369.165 C 240.063 369.421,240.194 369.500,240.551 369.363 C 240.877 369.238,241.334 368.590,241.567 367.923 C 241.927 366.889,242.137 366.748,242.995 366.963 C 243.828 367.172,244.000 367.072,244.000 366.380 C 244.000 365.742,244.213 365.575,244.900 365.672 C 245.485 365.755,245.942 365.520,246.206 365.000 C 246.450 364.519,247.275 364.052,248.278 363.829 C 249.404 363.578,250.010 363.205,250.148 362.676 C 250.291 362.130,250.591 361.957,251.142 362.101 C 251.686 362.243,251.992 362.073,252.128 361.554 C 252.242 361.118,252.679 360.800,253.163 360.800 C 253.623 360.800,254.000 360.638,254.000 360.440 C 254.000 359.811,256.710 358.451,257.534 358.667 C 258.121 358.820,258.308 358.684,258.262 358.137 C 258.217 357.601,258.473 357.400,259.200 357.400 C 259.776 357.400,260.322 357.103,260.487 356.700 C 260.645 356.315,261.050 356.000,261.387 356.000 C 261.724 356.000,262.347 355.685,262.771 355.300 C 264.453 353.774,264.846 353.561,265.559 353.787 C 266.093 353.956,266.364 353.781,266.526 353.162 C 266.704 352.479,266.954 352.352,267.730 352.547 C 268.489 352.737,268.755 352.614,268.917 351.996 C 269.032 351.555,269.463 351.200,269.883 351.200 C 270.299 351.200,270.867 350.975,271.144 350.700 C 271.548 350.299,271.595 350.339,271.381 350.900 C 271.234 351.285,271.278 351.600,271.477 351.600 C 271.676 351.600,272.067 350.970,272.346 350.200 C 272.871 348.748,273.496 348.456,274.320 349.280 C 274.693 349.653,274.800 349.562,274.800 348.867 C 274.800 347.792,275.783 347.322,276.605 348.004 C 277.103 348.418,277.200 348.343,277.200 347.547 C 277.200 346.501,279.145 345.340,280.211 345.749 C 280.609 345.901,280.800 345.715,280.800 345.175 C 280.800 344.195,281.808 343.743,282.574 344.379 C 283.029 344.756,283.164 344.668,283.269 343.923 C 283.354 343.322,283.714 342.955,284.300 342.872 C 284.795 342.802,285.200 342.585,285.200 342.391 C 285.200 341.854,287.914 340.681,288.572 340.934 C 288.951 341.079,289.193 340.854,289.275 340.278 C 289.360 339.684,289.654 339.423,290.184 339.470 C 290.615 339.508,291.221 339.177,291.531 338.734 C 291.988 338.082,292.371 337.976,293.548 338.179 C 294.601 338.361,294.835 338.317,294.400 338.021 C 293.884 337.670,293.898 337.611,294.500 337.606 C 294.945 337.602,295.200 337.291,295.200 336.750 C 295.200 336.019,295.368 335.934,296.400 336.140 C 297.399 336.340,297.600 336.252,297.600 335.614 C 297.600 334.601,298.291 334.212,299.018 334.815 C 299.493 335.209,299.600 335.158,299.600 334.540 C 299.600 333.614,301.955 332.254,302.918 332.624 C 303.416 332.815,303.600 332.676,303.600 332.109 C 303.600 331.042,303.977 330.760,304.808 331.205 C 305.354 331.496,305.558 331.404,305.717 330.795 C 305.830 330.363,306.345 329.825,306.861 329.600 C 307.378 329.374,308.403 328.826,309.140 328.381 C 309.911 327.915,310.803 327.674,311.240 327.813 C 311.805 327.992,312.000 327.859,312.000 327.294 C 312.000 326.241,312.381 325.962,313.211 326.406 C 313.781 326.711,313.965 326.592,314.166 325.792 C 314.320 325.181,314.701 324.800,315.159 324.800 C 315.568 324.800,316.126 324.530,316.400 324.200 C 316.674 323.870,317.146 323.600,317.449 323.600 C 317.752 323.600,318.000 323.400,318.000 323.157 C 318.000 322.889,318.378 322.808,318.954 322.953 C 319.700 323.140,319.957 323.007,320.130 322.345 C 320.301 321.691,320.581 321.541,321.356 321.689 C 322.147 321.841,322.385 321.703,322.480 321.041 C 322.571 320.400,322.885 320.200,323.800 320.200 C 325.095 320.200,325.689 319.810,326.117 318.681 C 326.337 318.100,326.660 318.012,327.795 318.225 L 329.200 318.489 329.200 249.445 L 329.200 180.400 300.600 180.400 L 272.000 180.400 272.000 232.574 C 272.000 287.539,272.015 287.091,270.194 286.634 C 269.373 286.428,269.200 286.530,269.200 287.220 C 269.200 287.858,268.987 288.025,268.300 287.928 C 267.715 287.845,267.258 288.080,266.994 288.600 C 266.748 289.085,265.921 289.548,264.894 289.777 C 263.616 290.061,263.200 290.344,263.200 290.927 C 263.200 291.578,263.005 291.661,261.958 291.452 C 260.984 291.257,260.763 291.326,260.934 291.772 C 261.214 292.503,260.194 293.360,259.405 293.057 C 259.069 292.928,258.799 293.042,258.797 293.313 C 258.794 294.040,256.566 295.169,255.623 294.922 C 254.978 294.753,254.800 294.896,254.800 295.581 C 254.800 296.259,254.598 296.427,253.900 296.328 C 253.317 296.245,252.853 296.482,252.583 297.000 C 252.317 297.511,251.848 297.755,251.283 297.675 C 250.733 297.597,250.400 297.761,250.400 298.111 C 250.400 298.826,248.483 299.761,247.275 299.634 C 246.574 299.560,246.381 299.713,246.475 300.268 C 246.569 300.815,246.348 301.000,245.600 301.000 C 245.007 301.000,244.429 301.325,244.180 301.800 C 243.943 302.251,243.376 302.586,242.880 302.568 C 242.396 302.551,242.000 302.669,242.000 302.831 C 242.000 302.993,241.640 303.031,241.200 302.916 C 240.551 302.746,240.400 302.904,240.400 303.753 C 240.400 304.857,239.494 305.199,238.941 304.304 C 238.734 303.969,238.556 304.131,238.394 304.804 C 238.210 305.565,237.899 305.796,237.076 305.784 C 236.484 305.776,236.000 305.980,236.000 306.238 C 236.000 306.955,234.016 308.097,233.159 307.873 C 232.606 307.729,232.400 307.886,232.400 308.450 C 232.400 309.409,231.384 309.851,230.626 309.221 C 230.171 308.844,230.036 308.932,229.931 309.677 C 229.846 310.278,229.486 310.645,228.900 310.728 C 228.405 310.798,228.000 311.018,228.000 311.218 C 228.000 311.801,225.575 312.887,224.753 312.672 C 224.207 312.529,224.000 312.688,224.000 313.250 C 224.000 314.243,222.974 314.643,222.159 313.966 C 221.634 313.530,221.543 313.540,221.612 314.022 C 221.781 315.200,221.580 315.600,220.821 315.600 C 220.392 315.600,219.540 316.064,218.928 316.632 C 218.092 317.407,217.540 317.608,216.708 317.442 C 215.806 317.261,215.600 317.362,215.600 317.986 C 215.600 319.031,214.986 319.328,213.960 318.779 C 213.471 318.517,213.210 318.493,213.353 318.724 C 213.882 319.580,213.087 320.326,211.373 320.583 C 209.999 320.789,209.600 321.018,209.600 321.601 C 209.600 322.555,208.866 323.026,208.285 322.445 C 207.654 321.814,207.280 321.894,207.344 322.645 C 207.429 323.623,206.079 324.360,205.595 323.600 C 205.284 323.113,205.211 323.164,205.206 323.871 C 205.199 324.902,203.232 326.038,202.009 325.718 C 201.401 325.559,201.200 325.701,201.200 326.287 C 201.200 327.358,200.823 327.641,199.992 327.195 C 199.452 326.907,199.243 326.992,199.093 327.564 C 198.912 328.258,197.537 329.237,195.900 329.837 C 195.515 329.978,195.200 330.267,195.200 330.478 C 195.200 330.700,194.680 330.749,193.974 330.594 C 192.935 330.366,192.767 330.435,192.874 331.048 C 192.950 331.482,192.720 331.828,192.300 331.915 C 191.814 332.015,191.600 331.808,191.600 331.239 C 191.600 330.542,191.421 330.456,190.400 330.660 C 189.359 330.868,189.200 330.784,189.200 330.023 C 189.200 329.356,189.025 329.202,188.471 329.378 C 187.693 329.624,185.200 328.573,185.200 327.999 C 185.200 327.810,184.802 327.598,184.316 327.528 C 183.797 327.453,183.344 327.034,183.216 326.512 C 183.055 325.851,182.850 325.717,182.413 325.989 C 181.724 326.418,180.800 325.799,180.800 324.908 C 180.800 324.554,180.566 324.404,180.221 324.537 C 179.449 324.833,177.200 323.686,177.200 322.995 C 177.200 322.648,176.800 322.477,176.100 322.525 C 175.237 322.584,174.973 322.407,174.873 321.701 C 174.769 320.971,174.609 320.874,174.025 321.187 C 173.188 321.635,172.800 321.364,172.800 320.333 C 172.800 319.930,172.620 319.600,172.400 319.600 C 172.180 319.600,172.000 319.330,172.000 319.000 C 172.000 318.670,171.685 318.414,171.300 318.432 C 170.878 318.451,170.799 318.544,171.102 318.666 C 172.043 319.045,171.201 319.531,170.110 319.239 C 169.473 319.069,168.936 318.592,168.812 318.086 C 168.659 317.465,168.443 317.322,168.036 317.575 C 167.244 318.068,166.400 317.653,166.400 316.770 C 166.400 316.270,166.201 316.101,165.797 316.257 C 165.120 316.516,162.400 315.357,162.400 314.809 C 162.400 314.615,162.002 314.398,161.516 314.328 C 160.959 314.247,160.547 313.832,160.399 313.204 C 160.242 312.532,160.066 312.369,159.859 312.704 C 159.375 313.488,158.813 313.287,158.392 312.179 C 158.086 311.373,157.862 311.238,157.328 311.536 C 156.438 312.034,154.402 310.569,154.394 309.425 C 154.389 308.813,154.299 308.740,154.046 309.139 C 153.526 309.959,152.218 309.518,152.069 308.473 C 151.965 307.741,151.825 307.647,151.387 308.011 C 150.678 308.599,150.000 308.178,150.000 307.149 C 150.000 306.535,149.817 306.404,149.220 306.594 C 148.281 306.892,146.000 305.795,146.000 305.045 C 146.000 304.691,145.663 304.575,145.000 304.702 C 144.130 304.868,144.000 304.751,144.000 303.798 C 144.000 302.873,143.907 302.779,143.405 303.196 C 142.612 303.854,141.600 303.421,141.600 302.425 C 141.600 301.875,141.411 301.698,140.995 301.857 C 140.662 301.985,140.122 301.867,139.795 301.596 C 139.468 301.324,139.200 301.220,139.200 301.365 C 139.200 301.510,138.840 301.435,138.400 301.200 C 137.960 300.965,137.600 300.525,137.600 300.223 C 137.600 299.867,137.312 299.750,136.776 299.890 C 136.168 300.049,135.893 299.879,135.725 299.236 C 135.596 298.741,135.219 298.401,134.849 298.446 C 133.880 298.564,132.012 297.697,131.747 297.006 C 131.619 296.673,131.084 296.400,130.557 296.400 C 129.864 296.400,129.600 296.178,129.600 295.592 C 129.600 294.926,129.421 294.830,128.575 295.042 C 127.772 295.244,127.507 295.131,127.347 294.520 C 127.210 293.997,126.601 293.621,125.485 293.371 C 124.266 293.098,123.769 292.764,123.613 292.112 C 123.454 291.451,123.250 291.317,122.813 291.589 C 122.158 291.997,121.200 291.414,121.200 290.606 C 121.200 290.295,120.832 290.181,120.207 290.301 C 119.275 290.479,118.104 288.977,118.335 287.900 C 118.440 287.413,117.281 287.558,117.116 288.053 C 116.883 288.752,115.200 288.052,115.200 287.257 C 115.200 286.772,114.881 286.573,114.121 286.584 C 113.242 286.597,112.971 286.359,112.663 285.300 C 112.455 284.585,112.130 284.000,111.942 284.000 C 111.754 284.000,111.600 263.660,111.600 238.800 C 111.600 208.933,111.736 193.600,112.000 193.600 C 112.220 193.600,112.400 193.330,112.400 193.000 C 112.400 192.670,112.580 192.400,112.800 192.400 C 113.020 192.400,113.200 192.051,113.200 191.624 C 113.200 190.619,113.885 190.207,114.587 190.789 C 115.025 191.153,115.165 191.059,115.269 190.327 C 115.345 189.794,115.730 189.345,116.187 189.258 C 116.620 189.175,117.565 188.657,118.286 188.107 C 119.092 187.493,119.908 187.187,120.399 187.316 C 120.893 187.445,121.200 187.328,121.200 187.012 C 121.200 186.096,122.323 185.438,122.969 185.974 C 123.431 186.357,123.563 186.272,123.669 185.523 C 123.754 184.922,124.114 184.555,124.700 184.472 C 125.195 184.402,125.600 184.218,125.600 184.063 C 125.600 183.540,128.352 182.296,128.978 182.536 C 129.403 182.699,129.600 182.539,129.600 182.030 C 129.600 181.147,130.444 180.732,131.236 181.225 C 131.645 181.479,131.859 181.331,132.016 180.688 C 132.175 180.031,132.576 179.767,133.557 179.672 C 134.523 179.578,134.800 179.676,134.579 180.033 C 134.384 180.350,134.443 180.421,134.745 180.234 C 135.002 180.075,135.109 179.777,134.983 179.572 C 134.856 179.368,134.943 179.200,135.176 179.200 C 135.409 179.200,135.600 178.817,135.600 178.350 C 135.600 177.623,135.770 177.534,136.774 177.735 C 137.768 177.934,137.968 177.834,138.074 177.085 C 138.156 176.509,138.479 176.200,139.000 176.200 C 139.440 176.200,140.035 175.885,140.323 175.500 C 140.610 175.115,141.105 174.800,141.423 174.800 C 141.740 174.800,142.000 174.617,142.000 174.392 C 142.000 174.157,142.423 174.091,143.000 174.236 C 143.842 174.447,144.000 174.346,144.000 173.597 C 144.000 172.872,144.179 172.741,144.964 172.891 C 145.689 173.030,146.035 172.842,146.356 172.138 C 146.599 171.604,147.131 171.200,147.591 171.200 C 148.036 171.200,148.401 171.065,148.403 170.900 C 148.407 170.321,150.764 169.265,151.577 169.478 C 152.222 169.647,152.400 169.504,152.400 168.819 C 152.400 168.141,152.602 167.973,153.300 168.072 C 153.883 168.155,154.346 167.918,154.616 167.400 C 154.852 166.946,155.457 166.588,156.016 166.573 C 157.528 166.530,158.400 165.996,158.400 165.111 C 158.400 164.476,158.604 164.346,159.369 164.492 C 160.089 164.630,160.392 164.474,160.545 163.887 C 160.702 163.287,160.997 163.144,161.776 163.293 C 162.451 163.422,162.800 163.311,162.800 162.967 C 162.800 162.258,164.382 161.200,165.442 161.200 C 165.987 161.200,166.389 160.886,166.529 160.350 C 166.704 159.679,166.956 159.553,167.730 159.747 C 168.503 159.941,168.755 159.814,168.930 159.145 C 169.103 158.486,169.379 158.341,170.176 158.493 C 170.950 158.641,171.200 158.523,171.200 158.009 C 171.200 157.268,173.008 156.214,174.049 156.349 C 174.421 156.397,174.795 156.063,174.925 155.567 C 175.108 154.867,175.347 154.750,176.175 154.958 C 177.021 155.170,177.200 155.074,177.200 154.408 C 177.200 153.813,177.464 153.600,178.200 153.600 C 178.750 153.600,179.200 153.425,179.200 153.210 C 179.200 152.701,181.342 151.600,182.333 151.600 C 182.785 151.600,183.199 151.247,183.329 150.750 C 183.508 150.067,183.751 149.951,184.575 150.158 C 185.406 150.367,185.600 150.271,185.600 149.653 C 185.600 149.056,185.991 148.832,187.400 148.621 C 188.799 148.411,189.200 148.184,189.200 147.599 C 189.200 146.592,189.813 146.272,190.764 146.781 C 191.422 147.133,191.565 147.057,191.672 146.299 C 191.763 145.659,192.059 145.409,192.700 145.432 C 193.195 145.449,193.600 145.237,193.600 144.961 C 193.600 144.263,195.984 143.141,196.871 143.422 C 197.418 143.596,197.600 143.445,197.600 142.814 C 197.600 142.353,197.870 141.871,198.200 141.745 C 198.817 141.508,199.165 80.215,198.558 78.635 C 198.347 78.085,198.168 78.111,197.138 78.844 C 196.478 79.314,195.617 79.593,195.180 79.479 C 194.706 79.355,194.400 79.476,194.400 79.788 C 194.400 80.611,193.449 81.201,192.787 80.789 C 192.350 80.517,192.145 80.651,191.984 81.312 C 191.817 82.001,191.432 82.228,190.264 82.325 C 189.111 82.421,188.653 82.685,188.301 83.457 C 187.958 84.210,187.611 84.419,186.921 84.287 C 186.239 84.157,186.000 84.295,186.000 84.822 C 186.000 85.695,185.237 86.014,184.300 85.532 C 183.749 85.248,183.600 85.339,183.600 85.957 C 183.600 86.821,181.505 88.092,180.632 87.757 C 180.325 87.639,180.010 87.919,179.877 88.427 C 179.692 89.134,179.455 89.250,178.625 89.042 C 177.787 88.832,177.600 88.927,177.600 89.565 C 177.600 90.025,177.230 90.462,176.700 90.627 C 176.205 90.781,175.710 91.023,175.600 91.163 C 175.010 91.917,173.199 92.725,172.506 92.544 C 171.926 92.392,171.648 92.575,171.480 93.217 C 171.293 93.931,171.056 94.051,170.235 93.845 C 169.455 93.649,169.272 93.723,169.442 94.164 C 169.701 94.839,168.464 95.603,167.126 95.594 C 166.382 95.589,166.318 95.512,166.800 95.200 C 167.231 94.921,167.254 94.811,166.880 94.806 C 166.593 94.803,166.095 95.433,165.772 96.206 C 165.267 97.414,165.045 97.576,164.192 97.362 C 163.363 97.154,163.200 97.257,163.200 97.984 C 163.200 98.659,162.997 98.827,162.300 98.728 C 161.715 98.645,161.258 98.880,160.994 99.400 C 160.748 99.885,159.921 100.348,158.894 100.577 C 157.933 100.791,157.200 101.185,157.200 101.489 C 157.200 102.228,156.103 102.584,155.464 102.053 C 155.056 101.714,154.945 101.816,154.969 102.508 C 154.993 103.194,154.745 103.429,153.893 103.527 C 153.284 103.597,152.890 103.823,153.017 104.028 C 153.144 104.233,152.805 104.570,152.263 104.776 C 151.721 104.982,151.159 105.342,151.015 105.576 C 150.835 105.867,150.513 105.875,150.002 105.601 C 148.957 105.042,148.800 105.091,148.800 105.976 C 148.800 106.952,148.072 107.432,147.485 106.845 C 146.810 106.170,146.533 106.307,146.568 107.300 C 146.591 107.941,146.341 108.237,145.700 108.328 C 145.205 108.398,144.800 108.615,144.800 108.809 C 144.800 109.357,142.080 110.516,141.403 110.257 C 140.990 110.098,140.800 110.276,140.800 110.825 C 140.800 111.805,139.792 112.257,139.026 111.621 C 138.572 111.245,138.436 111.328,138.331 112.050 C 138.244 112.642,137.816 113.048,137.067 113.247 C 136.170 113.486,135.980 113.429,136.155 112.974 C 136.283 112.639,136.135 112.400,135.800 112.400 C 135.453 112.400,135.317 112.638,135.455 113.000 C 135.601 113.380,135.450 113.600,135.043 113.600 C 134.686 113.600,134.400 113.926,134.400 114.333 C 134.400 115.373,134.011 115.634,133.147 115.172 C 132.530 114.841,132.400 114.915,132.400 115.598 C 132.400 116.636,131.391 117.057,130.559 116.366 C 130.022 115.920,129.949 115.950,130.064 116.568 C 130.141 116.980,129.854 117.490,129.400 117.747 C 128.960 117.996,128.487 118.354,128.350 118.543 C 128.212 118.731,127.717 118.764,127.250 118.616 C 126.678 118.434,126.398 118.518,126.394 118.873 C 126.381 120.012,125.742 120.504,124.879 120.042 C 124.170 119.663,124.038 119.726,123.928 120.501 C 123.846 121.078,123.478 121.446,122.900 121.528 C 122.405 121.598,122.000 121.810,122.000 121.999 C 122.000 122.573,119.507 123.624,118.729 123.378 C 118.184 123.205,118.000 123.355,118.000 123.973 C 118.000 124.565,117.743 124.800,117.096 124.800 C 116.599 124.800,115.968 125.160,115.693 125.600 C 115.418 126.040,114.900 126.400,114.541 126.400 C 114.182 126.400,113.675 126.692,113.414 127.049 C 113.120 127.451,112.646 127.605,112.170 127.454 C 111.415 127.215,111.402 126.309,111.508 81.861 C 111.604 41.677,111.547 36.454,111.008 36.007 C 110.674 35.729,110.400 35.158,110.400 34.737 C 110.400 34.117,110.260 34.047,109.661 34.367 C 108.843 34.805,108.000 34.252,108.000 33.277 C 108.000 32.950,107.757 32.808,107.421 32.937 C 106.774 33.185,104.400 32.133,104.400 31.599 C 104.400 31.410,104.000 31.198,103.510 31.128 C 103.021 31.058,102.425 30.608,102.187 30.129 C 101.886 29.521,101.586 29.362,101.196 29.602 C 100.456 30.060,100.000 29.735,100.000 28.749 C 100.000 28.154,99.811 28.006,99.271 28.178 C 98.493 28.424,96.000 27.373,96.000 26.799 C 96.000 26.610,95.600 26.398,95.110 26.328 C 94.621 26.258,94.036 25.840,93.810 25.400 C 93.544 24.881,93.084 24.645,92.500 24.728 C 91.808 24.826,91.600 24.659,91.600 24.001 C 91.600 23.356,91.421 23.203,90.871 23.378 C 90.093 23.624,87.600 22.573,87.600 21.999 C 87.600 21.810,87.195 21.598,86.700 21.528 C 86.122 21.446,85.754 21.078,85.672 20.501 C 85.565 19.743,85.422 19.667,84.764 20.019 C 83.809 20.530,83.200 20.207,83.200 19.189 C 83.200 18.672,83.005 18.500,82.597 18.657 C 81.920 18.916,79.200 17.757,79.200 17.209 C 79.200 17.015,78.795 16.798,78.300 16.728 C 77.714 16.645,77.354 16.278,77.269 15.677 C 77.164 14.932,77.029 14.844,76.574 15.221 C 75.808 15.857,74.800 15.405,74.800 14.425 C 74.800 13.876,74.610 13.698,74.197 13.857 C 73.520 14.116,70.800 12.957,70.800 12.409 C 70.800 12.215,70.395 11.998,69.900 11.928 C 69.326 11.846,68.954 11.478,68.874 10.913 C 68.764 10.139,68.647 10.088,67.962 10.513 C 67.092 11.052,66.231 10.285,66.594 9.295 C 66.724 8.940,66.495 8.861,65.827 9.029 C 64.588 9.340,62.802 8.177,62.794 7.054 C 62.789 6.426,62.697 6.343,62.446 6.739 C 61.921 7.568,60.663 7.114,60.400 6.002 C 60.242 5.331,60.066 5.169,59.859 5.504 C 59.382 6.276,58.400 6.087,58.400 5.224 C 58.400 4.218,57.959 3.967,57.067 4.466 M283.500 27.472 C 282.338 27.782,282.436 43.200,283.600 43.200 C 284.133 43.200,284.400 43.467,284.400 44.000 C 284.400 44.773,284.667 44.800,292.175 44.800 L 299.951 44.800 300.196 43.100 C 300.330 42.165,300.386 38.250,300.320 34.400 L 300.200 27.400 292.200 27.342 C 287.800 27.311,283.885 27.369,283.500 27.472 M299.909 35.300 L 299.800 43.000 292.200 43.000 L 284.600 43.000 284.491 35.300 L 284.383 27.600 292.200 27.600 L 300.017 27.600 299.909 35.300 M317.200 80.000 C 317.200 80.259,322.067 80.400,331.000 80.400 C 339.933 80.400,344.800 80.259,344.800 80.000 C 344.800 79.741,339.933 79.600,331.000 79.600 C 322.067 79.600,317.200 79.741,317.200 80.000 M270.063 84.426 C 269.548 84.633,268.963 84.701,268.763 84.577 C 268.547 84.444,268.400 93.370,268.400 106.576 C 268.400 128.533,268.410 128.800,269.200 128.800 C 269.733 128.800,270.000 129.067,270.000 129.600 C 270.000 130.390,270.267 130.400,292.148 130.400 L 314.295 130.400 314.543 128.900 C 315.040 125.895,314.834 84.994,314.320 84.480 C 313.724 83.884,271.544 83.833,270.063 84.426 M314.200 106.600 L 314.200 128.600 292.200 128.600 L 270.200 128.600 270.097 106.826 C 270.015 89.672,270.100 84.983,270.497 84.730 C 270.773 84.553,280.720 84.451,292.600 84.504 L 314.200 84.600 314.200 106.600 M205.467 128.267 C 205.320 128.413,205.200 141.891,205.200 158.217 L 205.200 187.900 206.450 188.150 C 208.053 188.471,265.103 188.469,266.300 188.148 L 267.200 187.907 267.200 157.953 L 267.200 128.000 266.300 128.000 L 265.400 128.000 265.510 158.003 L 265.620 188.005 236.310 187.903 L 207.000 187.800 206.897 159.079 C 206.841 143.282,206.952 130.052,207.143 129.679 C 207.782 128.436,206.433 127.300,205.467 128.267 " stroke="none" fill="#04b4e4" fill-rule="evenodd"></path></g></svg>